# Blender 3.6.0
# www.blender.org
mtllib octahedron.mtl
o Octahedron
v 0.000000 2.000000 0.000000
v 0.000000 0.000000 2.000000
v 2.000000 0.000000 0.000000
v -2.000000 0.000000 0.000000
v 0.000000 -2.000000 0.000000
v 0.000000 0.000000 -2.000000
vn 0.5774 0.5774 0.5774
vn -0.5774 0.5774 0.5774
vn 0.5774 -0.5774 0.5774
vn -0.5774 -0.5774 0.5774
vn 0.5774 0.5774 -0.5774
vn -0.5774 0.5774 -0.5774
vn 0.5774 -0.5774 -0.5774
vn -0.5774 -0.5774 -0.5774
vt 0.000000 0.000000
vt 1.000000 0.000000
vt 1.000000 1.000000
s 0
usemtl Material
f 1/1/1 2/2/1 3/3/1
f 4/1/2 2/2/2 1/3/2
f 3/1/3 2/2/3 5/3/3
f 5/1/4 2/2/4 4/3/4
f 3/1/5 6/2/5 1/3/5
f 1/1/6 6/2/6 4/3/6
f 5/1/7 6/2/7 3/3/7
f 4/1/8 6/2/8 5/3/8
